<?xml version="1.0" encoding="UTF-8" standalone="no"?>
<!DOCTYPE svg PUBLIC "-//W3C//DTD SVG 1.1//EN" "http://www.w3.org/Graphics/SVG/1.1/DTD/svg11.dtd">
<svg version="1.1" xmlns="http://www.w3.org/2000/svg" xmlns:xlink="http://www.w3.org/1999/xlink" preserveAspectRatio="xMidYMid meet" viewBox="0 0 681 681" width="681" height="681"><defs><path d="M131.23 660.33C119.45 651.79 113.95 637.12 117.15 622.96C120.07 610.1 134.68 545.77 160.96 429.98C71.82 351.8 22.29 308.36 12.39 299.68C1.47 290.14 -2.71 275.04 1.78 261.23C6.26 247.44 18.46 237.68 32.9 236.34C46.01 235.15 111.54 229.2 229.49 218.49C276.13 109.36 302.03 48.73 307.21 36.61C312.95 23.24 326 14.61 340.5 14.61C355 14.61 368.05 23.24 373.78 36.57C378.96 48.7 404.87 109.34 451.51 218.49C569.44 229.2 634.96 235.15 648.06 236.34C662.54 237.64 674.74 247.44 679.22 261.23C683.7 275.02 679.56 290.14 668.64 299.68C658.73 308.36 609.2 351.79 520.06 429.95C546.34 545.74 560.95 610.07 563.87 622.93C567.08 637.12 561.57 651.79 549.8 660.3C538.05 668.81 522.39 669.47 510.01 662.03C498.71 655.28 442.21 621.51 340.5 560.73C238.79 621.55 182.28 655.33 170.98 662.09C165.25 665.49 158.87 667.23 152.42 667.23C144.96 667.23 137.55 664.9 131.23 660.33ZM359.06 522.23C369.72 528.61 423.05 560.5 519.04 617.91C494.23 508.62 480.45 447.91 477.69 435.76C474.74 422.8 479.14 409.27 489.16 400.5C498.51 392.29 545.28 351.28 629.45 277.46C518.08 267.35 456.22 261.73 443.84 260.6C430.48 259.38 418.99 250.98 413.76 238.67C408.88 227.23 384.46 170.01 340.5 67.02C296.49 170.03 272.03 227.25 267.14 238.69C261.98 250.93 250.49 259.33 237.15 260.55C224.78 261.67 162.9 267.29 51.52 277.4C135.69 351.22 182.45 392.24 191.81 400.44C201.85 409.23 206.25 422.74 203.27 435.74C200.52 447.88 186.75 508.6 161.96 617.88C257.95 560.49 311.27 528.6 321.94 522.23C327.67 518.82 334.06 517.09 340.5 517.09C346.94 517.09 353.32 518.82 359.06 522.23ZM227.99 222.01C227.99 222.01 227.99 222.04 227.96 222.07C227.96 222.07 227.99 222.01 227.99 222.01ZM452.98 221.98C452.98 221.95 452.98 221.95 452.95 221.93C452.96 221.94 452.98 221.98 452.98 221.98Z" id="c1DbN5AcKi"></path><path d="" id="fsMaWvBzA"></path><path d="M248.42 229.09L20.16 269.66L184 419.18L155.37 633.91L340.5 559.95L340.5 65.26L248.42 229.09Z" id="c1eslIICzj"></path></defs><g><g><g><use xlink:href="#c1DbN5AcKi" opacity="1" fill="#ffc107" fill-opacity="1"></use><g><use xlink:href="#c1DbN5AcKi" opacity="1" fill-opacity="0" stroke="#000000" stroke-width="1" stroke-opacity="0"></use></g></g><g><g><use xlink:href="#fsMaWvBzA" opacity="1" fill-opacity="0" stroke="#000000" stroke-width="1" stroke-opacity="1"></use></g></g><g><use xlink:href="#c1eslIICzj" opacity="1" fill="#ffc107" fill-opacity="1"></use></g></g></g></svg>